<?xml version="1.0" encoding="UTF-8" standalone="no"?>
<svg
   xmlns:d="https://loading.io/stock/"
   xmlns:dc="http://purl.org/dc/elements/1.1/"
   xmlns:cc="http://creativecommons.org/ns#"
   xmlns:rdf="http://www.w3.org/1999/02/22-rdf-syntax-ns#"
   xmlns:svg="http://www.w3.org/2000/svg"
   xmlns="http://www.w3.org/2000/svg"
   xmlns:sodipodi="http://sodipodi.sourceforge.net/DTD/sodipodi-0.dtd"
   xmlns:inkscape="http://www.inkscape.org/namespaces/inkscape"
   sodipodi:docname="drawing-1.svg"
   inkscape:version="1.0 (4035a4fb49, 2020-05-01)"
   id="svg8"
   version="1.1"
   viewBox="0 0 32.834793 32.834793"
   height="32.834793mm"
   width="32.834793mm">
  <defs
     id="defs2" />
  <sodipodi:namedview
     inkscape:window-maximized="0"
     inkscape:window-y="0"
     inkscape:window-x="90"
     inkscape:window-height="1035"
     inkscape:window-width="1541"
     showgrid="false"
     inkscape:document-rotation="0"
     inkscape:current-layer="layer1"
     inkscape:document-units="mm"
     inkscape:cy="230.62143"
     inkscape:cx="167.76427"
     inkscape:zoom="0.35"
     inkscape:pageshadow="2"
     inkscape:pageopacity="0.0"
     borderopacity="1.0"
     bordercolor="#666666"
     pagecolor="#ffffff"
     id="base" />
  <metadata
     id="metadata5">
    <rdf:RDF>
      <cc:Work
         rdf:about="">
        <dc:format>image/svg+xml</dc:format>
        <dc:type
           rdf:resource="http://purl.org/dc/dcmitype/StillImage" />
        <dc:title></dc:title>
      </cc:Work>
    </rdf:RDF>
  </metadata>
  <g
     transform="translate(-61.445704,-87.14808)"
     id="layer1"
     inkscape:groupmode="layer"
     inkscape:label="Layer 1">
    <g
       transform="matrix(0.38629167,0,0,0.38629167,58.548516,85.023476)"
       class="ldl-scale"
       id="g42"><circle
   stroke-width="5"
   stroke="#333"
   fill="#77a4bd"
   r="40"
   cy="48"
   cx="50"
   style="fill:#77a4bd;stroke:#333333"
   id="circle10" />

<path
   stroke="#fff"
   fill="#f8eaec"
   d="m 11.7,59.6 v 0 l 0.1,0.2 v 0 z"
   style="fill:#f8eaec;stroke:#ffffff"
   id="path12" />

<path
   fill="#f5e6c8"
   d="M 60.8,56.9 Z"
   style="fill:#f5e6c8"
   id="path14" />

<path
   fill="none"
   d="m 54.7,17.6 c 0,-0.1 0.1,-0.2 0.2,-0.3 -0.2,0 -0.3,0.1 -0.5,0.1 0.1,0 0.2,0.1 0.3,0.2 z"
   id="path16" />

<path
   fill="none"
   d="m 52,15.7 c 0,0 0.1,0 0,0 0.1,0 0,0 0,0 z"
   id="path18" />

<path
   fill="none"
   d="m 51.9,18.1 c 0,0 0,-0.1 0,0 0,-0.1 0,0 0,0 z"
   id="path20" />

<path
   fill="none"
   d="m 53,16.5 c 0.2,0 0.4,0 0.6,0.1 l -0.1,-0.3 c 0.2,-0.1 0.5,-0.1 0.7,0.1 -0.2,-0.2 -0.4,-0.3 -0.7,-0.3 0.1,-0.2 0.2,-0.3 0.4,-0.3 v -0.2 c -0.1,0 -0.2,-0.1 -0.2,-0.1 l 0.1,0.1 c -0.4,0.2 -0.7,0.5 -1,0.4 0.1,0.1 0.2,0.1 0.3,0.2 z"
   id="path22" />

<path
   fill="none"
   d="m 26.4,21.7 0.1,-0.1 -0.5,0.1 0.2,-0.4 -0.2,0.2 0.3,-0.3 c -0.2,0.2 -0.5,0.2 -0.6,0 0.4,-0.2 0.7,-0.5 0.9,-0.8 l -0.4,-0.1 c 0.6,-1 1.6,-1.6 2.7,-1.7 v 0.2 l 0.5,-0.1 c 0.1,0 0.9,-0.3 1.2,-0.4 -0.2,-0.1 -0.5,-0.1 -0.7,0 L 30,18 c -0.4,-0.8 0.3,-1.3 1.6,-0.9 l -0.4,0.2 0.3,0.2 c 1.5,-1.5 2.7,-2.3 5,-1.8 0.1,0.2 0.1,0.3 -0.2,0.4 0.2,-0.1 0.3,-0.1 0.5,0.1 l -0.2,0.1 C 38,18 39.1,18 41.4,18 v 0.2 c 0.3,0 0.5,-0.1 0.6,-0.3 0.2,0.1 0.3,0.3 0.2,0.6 l 0.7,-0.3 -0.3,0.4 c 0.3,0 0.5,0 0.7,-0.2 1,0.1 1.7,0.4 2.3,1.1 L 45,19.7 c 0.6,0.2 1.2,0.2 1.7,0.1 -0.3,-0.1 -0.6,-0.2 -0.9,-0.4 0,-0.4 -0.2,-0.5 -0.7,-0.4 L 45,18.5 c 0.6,0 1.1,-0.1 1.6,-0.1 -0.5,-0.2 -1.1,-0.3 -1.6,-0.3 v -0.2 l 0.8,-0.1 c -0.3,0 -0.6,-0.1 -0.8,-0.2 0.1,-0.2 0.3,-0.3 0.4,-0.4 -0.5,0.3 -1,0.5 -1.7,0.6 0.1,-0.3 0,-0.5 -0.3,-0.6 0.9,-0.1 1.4,-0.5 1.4,-1.1 0.8,-0.1 1.5,0.2 2,0.7 h -0.1 c 0.1,0 0.3,0.1 0.4,0.2 l -0.3,0.2 c 0.4,-0.3 0.8,-0.2 0.9,0.2 0.5,-0.4 0.7,-0.3 0.6,0.5 0.3,-0.2 0.4,-0.4 0.2,-0.7 0.6,-0.1 0.8,0.2 0.8,0.8 -0.1,0.6 0.2,0.9 1,1 0,0.3 -0.2,0.4 -0.6,0.3 l 0.2,0.2 c -0.2,0.3 -0.4,0.5 -0.7,0.6 0.6,0.1 1.2,0.1 1.9,0.2 0.4,-0.5 0.7,-0.5 0.8,0.3 0,-0.4 0.2,-0.6 0.5,-0.4 0,-0.1 -0.1,-0.3 -0.2,-0.4 -0.3,0 -0.6,-0.1 -0.9,-0.3 0.2,-0.1 0.4,-0.2 0.5,-0.4 -0.1,0 -0.1,0 -0.2,-0.1 -0.2,-0.3 -0.5,-0.5 -0.8,-0.6 v -0.2 l 0.6,0.1 -0.4,-0.5 c 0.3,-0.3 0.6,-0.3 0.9,-0.2 -0.1,-0.4 0.1,-0.7 0.4,-0.7 -0.1,-0.1 -0.2,-0.2 -0.4,-0.3 -0.1,0 -0.2,-0.1 -0.3,-0.1 -0.1,0 -0.2,0 -0.3,-0.1 l 0.1,-0.3 H 51 l 0.1,-0.4 h 0.2 c 0.2,-0.2 0.4,-0.2 0.7,-0.1 -0.3,-0.2 -0.2,-0.4 0.2,-0.6 h -0.1 c 0.5,-0.1 1,0.1 1.4,0.5 l -0.1,-0.1 c 0.3,0.2 0.6,0.1 0.8,-0.1 -0.5,0.1 -1,0 -1.4,-0.3 -0.1,0 -0.2,-0.1 -0.2,-0.2 0.3,-0.3 0.7,-0.4 1,-0.2 v -0.2 c 0.5,-0.2 1,-0.2 1.4,-0.2 L 55.2,14 54.9,13.9 c 0.3,-0.3 0.6,-0.4 1,-0.3 l -0.1,-0.2 h 0.7 C 56.2,13.3 56,13.2 55.8,13 l 0.3,-0.1 -0.2,-0.1 c 0.5,-0.4 1.2,-0.4 1.8,-0.2 l -0.3,0.3 c 0.3,-0.1 0.3,-0.1 0.7,-0.1 l -0.2,-0.1 c 0.3,0 0.6,0.1 0.8,0.2 -0.2,-0.1 -0.3,-0.3 -0.4,-0.4 0.9,-0.2 1.4,0 1.5,0.5 0.8,-0.6 1.8,-0.4 3,0.7 v 0.1 c 0.4,0.2 1,0.4 1.6,0.4 0.2,0.1 0.6,0.3 0.9,0.3 l -0.1,0.2 c 0.7,-0.1 0.9,0.1 0.6,0.4 0.4,0 0.8,0.1 1.1,0.3 h -0.5 c 0.6,0.1 1.3,0.3 1.9,0.5 v 0.2 C 68,16 67.6,16 67.3,15.9 c 0.4,0.1 0.7,0.2 0.9,0.5 0.2,-0.1 0.3,-0.2 0.5,-0.3 0.9,0.5 1,1.1 0.5,1.7 1,0.7 1.1,1.3 0.5,2 0.7,1.3 1.6,2.4 2.8,3.3 -3,0.1 -5.9,-1.6 -8,-3.7 0.3,-0.4 0.2,-0.7 -0.4,-0.9 -0.2,0.8 -0.7,0.7 -1.4,-0.2 0.3,-0.1 0.6,-0.1 0.9,-0.1 -2.5,-0.6 -4.9,-2.3 -7.7,-2.1 0.1,0.1 0.1,0.2 -0.2,0.4 0.1,0.2 0,0.3 -0.2,0.3 0.2,0 0.4,0.1 0.5,0.2 -0.1,0.1 -0.2,0.1 -0.2,0.2 0.1,0 0.2,0 0.3,0.1 0.5,-0.1 1.1,0 1.4,0.3 -0.3,0 -0.6,0 -0.9,0.1 -0.1,0 -0.2,-0.1 -0.3,-0.2 0.1,0.1 0.1,0.3 0.1,0.5 0.3,0 0.5,-0.2 0.7,-0.4 0.6,0.1 4.2,1.4 4.4,1.5 l -0.4,0.3 c 2.3,-0.4 3.3,0.2 3.2,1.8 -0.6,-0.7 -1.3,-0.8 -2,-0.5 1,0.4 1.9,1.1 2.6,2 -0.6,-0.1 -1.3,-0.2 -1.9,-0.4 0.6,0.3 1.2,0.6 1.7,1 -1,0 -2,-0.2 -3,-0.6 v -0.2 c -0.5,-0.2 -1,-0.3 -1.5,-0.5 l 0.1,0.2 c -0.5,0.2 -1,0.2 -1.5,0 l 0.1,-0.5 c 0.5,0 1,-0.1 1.5,-0.2 -0.3,-0.3 -0.4,-0.7 -0.1,-1.1 -0.5,-0.5 -1.2,-0.8 -1.9,-0.8 l 0.1,-0.2 c -0.4,-0.2 -0.7,-0.4 -1.1,-0.5 -0.1,0.2 -0.3,0.4 -0.5,0.6 0.1,0.2 0.1,0.4 -0.1,0.6 0.8,0.7 0.4,1.1 -1.1,1 0,0.3 -0.1,0.5 -0.2,0.7 v 0.1 c 0.6,-0.1 1.3,0.2 1.6,0.7 0.2,-0.1 0.3,-0.1 0.4,0 h 0.3 c -0.2,0.3 -0.5,0.5 -0.8,0.3 -0.2,0 -0.4,-0.2 -0.6,-0.4 -0.2,0.3 -0.5,0.5 -0.9,0.7 -0.1,-0.4 -0.4,-0.5 -0.8,-0.3 0.3,-0.2 0.4,-0.5 0.4,-0.8 -0.3,0.4 -0.7,0.6 -1.2,0.8 -0.6,0.7 -1.7,1.9 -1.7,3.1 1.8,1.5 4,1.9 6.8,2.5 0.2,1.3 0.8,2.2 2.1,2.8 1,-0.5 0.8,-1.4 -0.6,-2.6 1.7,-1 1.5,-2.1 -0.2,-2.9 0.6,-1 -0.1,-1.1 -0.7,-2.3 2.3,-0.5 4.5,0.6 5.9,2.2 0.5,-0.4 0.7,-0.9 0.5,-1.6 1.4,0.8 6.4,3.4 7.6,4.7 -0.2,0.2 -0.3,0.4 -0.5,0.6 0.1,0.4 0.1,0.8 0.1,1.2 l 0.2,-0.3 0.4,0.1 v 0.3 l 0.6,0.1 0.1,-0.2 c 0.6,-0.1 0.8,0.1 0.8,0.7 l 0.3,-0.2 c 0.3,0.5 0.7,1 1,1.5 -0.6,0.4 -0.8,-0.4 -1.1,-0.7 0,0.4 -0.1,0.7 -0.5,0.8 l 0.1,-0.4 c -1.3,0 -2.6,0.9 -2.2,-0.3 -0.8,-0.3 -1,-0.9 -0.6,-1.9 -1.8,1.4 -3.4,0.6 -4.9,4.1 0.7,-1.4 1.8,-2.2 3.4,-2.1 0.2,0.6 0.4,1.1 0.7,1.5 0,-0.1 0,-0.1 0.1,-0.2 0.4,0.4 0.8,0.5 1.3,0.3 0.2,-0.1 0.4,-0.3 0.6,-0.6 0.1,0.4 0.4,0.7 0.8,0.8 -0.5,1.7 -1.5,2.5 -2.8,2.4 -0.6,-1 0.1,-0.7 0.5,-1.5 -0.5,0.1 -1.1,0.2 -1.6,0.4 l 0.2,0.2 c -1.6,0.7 -1.8,1.8 -1.1,2.7 l -0.2,-0.3 c 0.2,0.1 0.3,0.2 0.3,0.4 -0.8,0.2 -1.6,0.5 -2.3,0.9 0.4,-0.2 0.8,-0.3 1.2,-0.1 -0.4,0.2 -0.9,0.4 -1.3,0.4 V 39.3 L 67,39.4 h 0.2 c 0.1,0.5 0,0.9 -0.3,1.3 -0.1,-0.2 -0.3,-0.4 -0.6,-0.4 0.6,0.6 0.6,1.2 0.2,2 h -0.1 l 0.1,-0.6 c -0.4,-0.2 -0.7,-0.5 -0.7,-1 -0.1,0.3 0,0.6 0.2,0.9 l -0.5,-0.1 c 0.5,0.3 0.8,0.7 1,1.1 -0.1,2 -1.8,2 -2.3,3.6 -0.8,2.5 0,4.6 0.6,7.1 -0.7,0.7 -3.4,-4 -3.6,-4.2 -1.7,1.2 -1,-1.1 -4.5,0.1 0,0.3 0.1,0.6 0.4,0.8 -3.8,-1.2 -6.6,0.6 -7,4.5 -0.7,7.4 4.5,4.7 8.5,3 2.3,-1.8 5.9,-0.3 7.8,0.8 0.3,-0.1 0.6,-0.1 0.8,-0.1 0.2,-0.3 0.7,-0.3 1.3,0 0.6,-0.1 1.5,-0.1 2.1,0.1 v 0.3 c 0.9,0 1,0.2 0.6,0.7 -0.6,-0.2 -1.3,0.1 -1.7,0 -0.3,0.1 -0.5,0.4 -0.5,0.8 -0.4,-0.6 -0.7,-0.5 -1.8,-0.4 -0.5,0.3 -0.8,0.2 -0.8,-0.3 0.6,0.2 1.3,0.1 1.7,-0.2 -0.3,-0.1 -0.4,-0.3 -0.4,-0.5 -0.6,0.1 -1.1,0.2 -1.7,0.3 l -1.2,0.2 0.5,-0.6 C 64,57.5 62.5,57 60.7,57.1 L 61,56.9 c -0.2,0.1 -0.9,0.4 -1.5,0.6 -0.1,0.4 -0.3,0.7 -0.4,1.1 0.4,0.3 0.4,0.7 -0.1,1.3 -0.1,-0.2 -0.2,-0.3 -0.4,-0.2 v 0.1 h 0.2 c 0.1,0.9 -0.2,1.7 -0.7,2.3 l 0.3,0.2 0.1,-0.1 c 0.1,0.1 0.2,0.1 0.4,0.1 0.7,-1 4.3,0.2 4.6,0.4 -1.2,1.6 0.1,4.5 1.1,5.4 0.2,0.1 0.4,0.1 0.5,-0.1 0.6,-0.1 1.7,-0.4 2.5,-0.7 v 0.1 c 0.7,0.1 1.4,0.3 2.1,0.6 0.2,-0.4 0.6,-0.7 1,-0.8 0.6,-0.5 1,-1.1 1.2,-1.8 1.9,-0.1 2.3,-2.3 2.5,-0.5 L 73.3,65 c -0.4,-0.4 0.2,1.8 0.4,2.1 0.1,-0.9 0.4,-1.6 1.2,-2.3 -0.2,-0.3 -0.2,-0.5 0.1,-0.7 l 0.4,0.6 c 0.6,-0.2 1.1,0.1 1.3,0.7 0.8,-0.1 2.7,-0.4 3.2,-0.6 0.6,-0.2 1.3,-0.3 2,-0.4 l -0.7,0.4 c 0.8,0.3 1.3,0.6 1.7,1.3 3,-5.4 4.6,-11.5 4.6,-18.1 0,-20.7 -16.8,-37.5 -37.5,-37.5 -11.2,0 -21.2,4.9 -28.1,12.7 1.7,-0.2 3.4,-0.7 4.9,-1.5 z"
   id="path24" />

<path
   fill="none"
   d="m 55.9,15.7 h -0.5 c 0.1,0 0.2,0.1 0.2,0.1 0.2,-0.1 0.3,-0.1 0.3,-0.1 z"
   id="path26" />

<path
   fill="none"
   d="M 66.4,78 66,78.4 65.5,78 c 0.2,-0.3 0.2,-0.7 0,-1 0.4,-1 1,-1.6 1.9,-2.3 l -0.1,-0.3 0.3,-0.1 c -0.2,-0.4 1.2,-1.8 1.3,-2 l -0.3,-0.2 c 0.5,-1 -0.5,-2.9 -1,-3.5 l 0.2,-0.3 c -1.3,-0.5 -2.2,-0.4 -1.6,0.8 -0.2,0.2 -0.5,0.3 -0.8,0.4 L 65.2,69 c -0.6,0 -0.6,-0.4 -1.7,-0.3 v 0.2 c -0.7,-0.3 -1.2,-0.8 -1.7,-1.3 0,-0.2 -0.1,-0.4 -0.3,-0.4 0.1,0.2 0.1,0.4 -0.1,0.5 -0.5,-0.2 -0.8,-0.5 -0.6,-1.1 l -0.3,-0.1 0.2,-0.2 c -0.6,-0.5 -1.2,-1.1 -1.9,-1.6 l 0.1,-0.1 0.2,0.1 0.1,-0.1 C 59.1,64.4 59,64.2 58.7,64.2 53.7,64.3 45.6,61.8 42.3,57.6 l 0.3,-0.1 c -0.4,-2 -1.4,-3.8 -3.1,-5 l 0.2,-0.6 c -2.2,-1 -1.7,-4.2 -3.7,-5.2 0.3,1 0.6,2.1 0.8,3.1 -1.1,-1.9 2.6,4.9 2.1,5.3 -0.9,-0.1 -1.5,-0.7 -1.8,-1.9 0.3,-0.8 0,-1.5 -0.8,-1.9 l -0.1,0.1 c -0.4,-0.3 -0.7,-0.7 -1,-1.1 0.7,-1.4 -0.5,-3.6 -1.5,-5.7 -2.3,-5 -1.7,-6.5 0.2,-12.4 0.6,0.2 0.8,0.6 0.7,1.2 1,-1.1 0.3,-1.8 -0.4,-2.3 0.2,0.3 0.3,0.7 0.3,1.2 -0.5,0.1 -1,-0.2 -1.1,-0.7 -0.3,-0.2 -1.1,-1 -0.6,-1.4 0.2,0.1 0.4,0.1 0.6,0.2 -0.3,-0.4 -0.3,-0.8 0.3,-1.3 l -0.4,-0.4 c 0.3,-0.4 0.4,-0.8 0,-1.2 2.3,-2.5 -2.4,-4 -2.5,-5.8 -0.9,0.4 -1.2,0.4 -2.5,0.5 0.9,-0.1 1.4,-0.5 1.8,-1.1 -2.7,0.9 -5.2,2.4 -8.2,2.1 -5.8,6.6 -9.4,15.3 -9.4,24.8 0,20.7 16.8,37.5 37.5,37.5 5.7,0 11,-1.3 15.9,-3.5 -0.2,-0.2 -0.5,-0.4 -0.7,-0.6 0,-1.1 0.6,-2.5 1.2,-3.4 z"
   id="path28" />

<path
   fill="none"
   d="m 47,20.3 0.3,-0.1 c -0.1,0 -0.3,-0.1 -0.5,-0.1 z"
   id="path30" />

<path
   fill="none"
   d="m 53,19.2 0.6,0.1 0.1,0.6 0.4,-0.5 c 0.4,0.5 0.5,0.6 0.9,1.2 0.3,-0.4 0.4,-0.8 0.4,-1.2 C 55,19.3 54.5,19 53.9,18.6 l 0.3,-0.3 c -0.8,0.1 -0.8,-0.2 0,-1 H 54 c -0.3,0 -0.6,0 -0.8,-0.1 l -0.7,0.7 h -0.1 c 0,0 -0.1,0 -0.1,0.1 1,0.3 1.3,0.7 0.7,1.2 z"
   id="path32" />

<path
   fill="none"
   d="m 52.4,15.7 h -0.3 c 0.1,0 0.2,0 0.2,0.1 v 0.1 h -0.1 c 0.1,0 0.2,0.1 0.3,0.1 0,-0.1 -0.1,-0.1 -0.1,-0.3 z"
   id="path34" />

<path
   fill="#f5e6c8"
   d="m 82.9,66.1 c -0.4,-0.6 -1,-1 -1.7,-1.3 l 0.7,-0.4 c -0.7,0.1 -1.3,0.3 -2,0.4 -0.5,0.1 -2.4,0.5 -3.2,0.6 -0.2,-0.6 -0.6,-0.8 -1.3,-0.7 L 75,64.1 c -0.3,0.2 -0.4,0.4 -0.1,0.7 -0.8,0.7 -1,1.4 -1.2,2.3 -0.2,-0.3 -0.8,-2.5 -0.4,-2.1 l 0.5,-0.2 c -0.2,-1.8 -0.5,0.4 -2.5,0.5 -0.2,0.7 -0.6,1.3 -1.2,1.8 -0.4,0.2 -0.8,0.5 -1,0.8 -0.7,-0.3 -1.3,-0.5 -2.1,-0.6 v -0.1 c -0.7,0.3 -1.9,0.6 -2.5,0.7 C 64.4,68 64.2,68.1 64,68 62.9,67.1 61.7,64.2 62.9,62.6 62.6,62.4 59,61.2 58.3,62.2 58.2,62.2 58,62.1 57.9,62.1 L 58,62.2 57.7,62 c 0.5,-0.6 0.7,-1.4 0.7,-2.3 h -0.2 v -0.1 c 0.2,-0.1 0.3,0 0.4,0.2 0.5,-0.6 0.6,-1 0.1,-1.3 0.1,-0.4 0.3,-0.7 0.4,-1.1 0.7,-0.2 1.3,-0.5 1.5,-0.6 L 60.3,57 c 1.8,-0.1 3.3,0.4 4.6,1.5 l -0.5,0.6 1.2,-0.2 c 0.6,-0.1 1.1,-0.2 1.7,-0.3 0,0.2 0.2,0.4 0.4,0.5 -0.5,0.3 -1.1,0.4 -1.7,0.2 0,0.5 0.3,0.6 0.8,0.3 1.1,-0.1 1.4,-0.2 1.8,0.4 0,-0.4 0.2,-0.7 0.5,-0.8 0.4,0.1 1,-0.2 1.7,0 0.5,-0.5 0.3,-0.7 -0.6,-0.7 V 58.2 C 69.6,58 68.7,58 68.1,58.1 c -0.6,-0.3 -1,-0.3 -1.3,0 -0.2,0 -0.5,0 -0.8,0.1 -1.9,-1.1 -5.5,-2.6 -7.8,-0.8 -4,1.6 -9.2,4.4 -8.5,-3 0.4,-3.9 3.2,-5.7 7,-4.5 -0.3,-0.2 -0.4,-0.4 -0.4,-0.8 3.5,-1.2 2.8,1.1 4.5,-0.1 0.1,0.2 2.9,4.9 3.6,4.2 -0.6,-2.4 -1.3,-4.6 -0.6,-7.1 0.5,-1.6 2.3,-1.6 2.3,-3.6 -0.2,-0.4 -0.5,-0.8 -1,-1.1 l 0.5,0.1 c -0.3,-0.3 -0.3,-0.6 -0.2,-0.9 0,0.5 0.2,0.8 0.7,1 L 66,42.2 h 0.1 c 0.5,-0.7 0.5,-1.4 -0.2,-2 0.3,0 0.5,0.2 0.6,0.4 0.3,-0.4 0.4,-0.8 0.3,-1.3 H 66.6 L 66.7,39 v 0.1 c 0.5,-0.1 0.9,-0.2 1.3,-0.4 -0.4,-0.1 -0.8,-0.1 -1.2,0.1 0.7,-0.4 1.5,-0.7 2.3,-0.9 0,-0.2 -0.1,-0.3 -0.3,-0.4 l 0.2,0.3 c -0.8,-0.9 -0.6,-2 1.1,-2.7 L 70.3,35 c 0.5,-0.2 1,-0.3 1.6,-0.4 -0.4,0.8 -1.1,0.5 -0.5,1.5 1.4,0.1 2.3,-0.7 2.8,-2.4 -0.4,-0.1 -0.7,-0.3 -0.8,-0.8 -0.2,0.3 -0.4,0.5 -0.6,0.6 -0.5,0.2 -1,0.1 -1.3,-0.3 0,0.1 0,0.1 -0.1,0.2 -0.3,-0.3 -0.5,-0.8 -0.7,-1.5 -1.5,-0.2 -2.7,0.7 -3.4,2.1 1.5,-3.5 3.1,-2.7 4.9,-4.1 -0.4,1 -0.2,1.6 0.6,1.9 -0.4,1.2 0.8,0.2 2.2,0.3 l -0.1,0.4 c 0.4,-0.1 0.5,-0.4 0.5,-0.8 0.3,0.3 0.5,1.1 1.1,0.7 -0.3,-0.5 -0.7,-1 -1,-1.5 L 75.3,31 c 0,-0.5 -0.3,-0.8 -0.8,-0.7 l -0.1,0.2 -0.6,-0.1 V 30.1 L 73.4,30 73.2,30.3 c 0,-0.4 -0.1,-0.8 -0.1,-1.2 0.2,-0.2 0.3,-0.4 0.5,-0.6 -1.3,-1.3 -6.2,-3.9 -7.6,-4.7 0.2,0.7 0.1,1.2 -0.5,1.6 -1.5,-1.5 -3.6,-2.7 -5.9,-2.2 0.6,1.3 1.3,1.3 0.7,2.3 1.7,0.9 1.9,1.9 0.2,2.9 1.4,1.2 1.7,2 0.6,2.6 -1.2,-0.6 -1.9,-1.5 -2.1,-2.8 -2.8,-0.6 -5,-0.9 -6.8,-2.5 -0.1,-1.2 1,-2.4 1.7,-3.1 0.5,-0.1 0.9,-0.4 1.2,-0.8 0,0.3 -0.1,0.6 -0.4,0.8 0.4,-0.2 0.7,-0.1 0.8,0.3 0.3,-0.2 0.6,-0.4 0.9,-0.7 0.2,0.2 0.4,0.3 0.6,0.4 0.3,0.2 0.7,0 0.8,-0.3 h -0.3 c -0.1,-0.1 -0.3,-0.1 -0.4,0 -0.3,-0.5 -1,-0.8 -1.6,-0.7 v -0.1 c 0.1,-0.2 0.2,-0.4 0.2,-0.7 1.6,0.1 1.9,-0.3 1.1,-1 0.2,-0.3 0.2,-0.5 0.1,-0.6 0.2,-0.1 0.4,-0.3 0.5,-0.6 0.4,0.1 0.7,0.3 1.1,0.5 l -0.1,0.2 c 0.7,0 1.4,0.3 1.9,0.8 -0.2,0.4 -0.2,0.8 0.1,1.1 -0.5,0.1 -1,0.2 -1.5,0.2 l -0.1,0.5 c 0.5,0.2 1,0.2 1.5,0 l -0.1,-0.2 c 0.5,0.2 1,0.3 1.5,0.5 v 0.2 c 0.9,0.4 1.9,0.6 3,0.6 -0.5,-0.4 -1.1,-0.7 -1.7,-1 0.6,0.2 1.2,0.3 1.9,0.4 -0.6,-0.9 -1.6,-1.6 -2.6,-2 0.7,-0.3 1.3,-0.2 2,0.5 0.1,-1.7 -0.9,-2.3 -3.2,-1.8 l 0.4,-0.3 c -0.2,-0.1 -3.7,-1.4 -4.4,-1.5 -0.1,0.3 -0.3,0.4 -0.7,0.4 0,-0.2 -0.1,-0.4 -0.1,-0.5 0.1,0.1 0.2,0.1 0.3,0.2 0.3,-0.1 0.6,-0.1 0.9,-0.1 C 57.1,16.9 56.6,16.8 56.1,17 56,16.9 55.9,16.9 55.8,16.9 55.9,16.8 56,16.8 56,16.7 c -0.1,-0.1 -0.3,-0.1 -0.5,-0.2 0.2,-0.1 0.3,-0.2 0.2,-0.3 0.3,-0.2 0.4,-0.3 0.2,-0.4 2.8,-0.1 5.2,1.5 7.7,2.1 -0.3,-0.1 -0.6,0 -0.9,0.1 0.7,1 1.2,1 1.4,0.2 0.6,0.3 0.8,0.6 0.4,0.9 2.1,2.1 5,3.8 8,3.7 -1.1,-0.9 -2.1,-2 -2.8,-3.3 0.7,-0.7 0.5,-1.3 -0.5,-2 0.6,-0.6 0.4,-1.1 -0.5,-1.7 -0.2,0.1 -0.4,0.2 -0.5,0.3 -0.2,-0.3 -0.5,-0.5 -0.9,-0.5 0.3,0.1 0.7,0.1 1,0.2 V 15.6 C 67.7,15.4 67,15.2 66.4,15.1 h 0.5 c -0.3,-0.2 -0.7,-0.3 -1.1,-0.3 0.3,-0.3 0,-0.5 -0.6,-0.4 l 0.1,-0.2 c -0.3,0 -0.7,-0.1 -0.9,-0.3 -0.5,-0.1 -1.1,-0.2 -1.6,-0.4 v -0.1 c -1.2,-1.1 -2.2,-1.3 -3,-0.7 -0.1,-0.6 -0.6,-0.7 -1.5,-0.5 0.1,0.2 0.3,0.3 0.4,0.4 -0.3,-0.1 -0.5,-0.2 -0.8,-0.2 l 0.2,0.1 c -0.4,0.1 -0.4,0.1 -0.7,0.1 l 0.3,-0.3 c -0.6,-0.2 -1.3,-0.2 -1.8,0.2 l 0.2,0.1 -0.3,0.1 c 0.2,0.2 0.4,0.4 0.7,0.4 h 0.4 -1.1 l 0.1,0.2 c -0.4,-0.1 -0.7,0 -1,0.3 l 0.3,0.1 C 55.1,13.9 55.1,14 55,14 c -0.5,0 -1,0.1 -1.4,0.2 v 0.2 c -0.4,-0.2 -0.7,-0.1 -1,0.2 0,0.1 0.1,0.2 0.2,0.2 0.4,0.3 0.9,0.4 1.4,0.3 -0.2,0.2 -0.4,0.3 -0.8,0.1 l 0.1,0.1 c -0.4,-0.4 -0.8,-0.6 -1.4,-0.5 l 0.1,0.1 c -0.4,0.2 -0.5,0.4 -0.2,0.6 -0.2,-0.1 -0.5,0 -0.7,0.1 H 51.1 L 51,16.1 h 0.4 l -0.1,0.3 c 0.1,0 0.2,0.1 0.3,0.1 0.1,0.1 0.2,0.1 0.3,0.1 0.1,0.1 0.2,0.2 0.4,0.3 -0.3,0.1 -0.4,0.3 -0.4,0.7 -0.4,-0.1 -0.7,0 -0.9,0.2 l 0.2,0.3 -0.6,-0.1 v 0.2 c 0.3,0.1 0.6,0.4 0.8,0.6 0.1,0 0.1,0 0.2,0.1 -0.1,0.2 -0.3,0.3 -0.5,0.4 0.3,0.2 0.6,0.3 0.9,0.3 0.1,0.2 0.1,0.3 0.2,0.4 -0.3,-0.1 -0.5,0 -0.5,0.4 -0.2,-0.8 -0.5,-0.8 -0.8,-0.3 -0.6,0 -1.2,-0.1 -1.9,-0.2 0.3,-0.1 0.5,-0.3 0.7,-0.6 l -0.2,-0.2 c 0.4,0.1 0.6,0.1 0.6,-0.3 -0.8,-0.1 -1.1,-0.4 -1,-1 0.1,-0.6 -0.2,-0.9 -0.8,-0.8 0.1,0.3 0,0.6 -0.2,0.7 0,-0.7 -0.2,-0.9 -0.6,-0.5 C 47.3,16.8 47,16.8 46.6,17 l 0.3,-0.2 c -0.1,-0.1 -0.3,-0.1 -0.4,-0.2 h 0.1 c -0.5,-0.5 -1.2,-0.8 -2,-0.7 0,0.6 -0.5,1 -1.4,1.1 0.3,0.1 0.4,0.3 0.3,0.6 0.6,-0.1 1.1,-0.3 1.7,-0.6 -0.1,0.1 -0.3,0.2 -0.4,0.4 0.2,0.2 0.5,0.3 0.8,0.2 l -0.8,0.1 v 0.2 c 0.6,0 1.1,0.1 1.6,0.3 -0.6,0 -1.1,0 -1.6,0.1 l 0.1,0.5 c 0.5,-0.1 0.8,0.1 0.7,0.4 0.3,0.2 0.6,0.3 0.9,0.4 -0.6,0.1 -1.2,0.1 -1.7,-0.1 l 0.6,-0.2 c -0.5,-0.7 -1.3,-1.1 -2.3,-1.1 -0.2,0.2 -0.4,0.2 -0.7,0.2 L 42.7,18 42,18.3 C 42.1,18 42.1,17.8 41.8,17.7 41.6,17.9 41.4,18 41.2,18 v -0.2 c -2.3,0 -3.4,0 -4.8,-1.6 l 0.2,-0.1 c -0.1,-0.2 -0.3,-0.2 -0.5,-0.1 0.2,-0.1 0.3,-0.3 0.2,-0.4 -2.4,-0.5 -3.5,0.3 -5,1.8 L 31,17.2 31.4,17 c -1.3,-0.4 -2,0.2 -1.6,0.9 l -0.1,0.2 c 0.2,-0.1 0.5,-0.1 0.7,0 -0.3,0.2 -1.1,0.4 -1.2,0.4 l -0.5,0.1 v -0.2 c -1.2,0.1 -2.1,0.7 -2.7,1.7 l 0.4,0.1 c -0.2,0.3 -0.5,0.6 -0.9,0.8 0.2,0.2 0.4,0.1 0.6,0 l -0.1,0.5 0.3,-0.2 -0.3,0.4 0.4,-0.1 -0.1,0.1 h 0.5 c -1.6,0.8 -3.2,1.3 -4.9,1.5 3,0.3 5.5,-1.3 8.2,-2.1 -0.3,0.6 -0.9,1 -1.8,1.1 1.2,-0.1 1.6,-0.1 2.5,-0.5 0.1,1.8 4.7,3.3 2.5,5.8 0.3,0.4 0.3,0.8 0,1.2 l 0.4,0.4 c -0.6,0.5 -0.6,0.9 -0.3,1.3 -0.2,-0.1 -0.4,-0.2 -0.6,-0.2 -0.5,0.4 0.3,1.2 0.6,1.4 0.1,0.5 0.6,0.8 1.1,0.7 0,-0.5 -0.1,-0.9 -0.3,-1.2 0.7,0.6 1.4,1.2 0.4,2.3 0.2,-0.6 -0.1,-1 -0.7,-1.2 -1.8,5.9 -2.4,7.4 -0.2,12.4 1,2.1 2.2,4.3 1.5,5.7 0.3,0.4 0.6,0.8 1,1.1 l 0.1,-0.1 c 0.8,0.4 1.1,1.1 0.8,1.9 0.3,1.2 0.9,1.8 1.8,1.9 0.5,-0.3 -3.2,-7.2 -2.1,-5.3 -0.2,-1.1 -0.4,-2.1 -0.8,-3.1 2,1 1.5,4.2 3.7,5.2 l -0.2,0.6 c 1.7,1.2 2.7,3.1 3.1,5 l -0.3,0.1 c 3.3,4.2 11.4,6.7 16.4,6.6 0.3,0 0.4,0.1 0.5,0.4 l -0.1,0.1 -0.2,-0.1 0.1,0.2 c 0.6,0.5 1.3,1 1.9,1.6 l -0.2,0.2 0.3,0.1 c -0.2,0.5 0,0.9 0.6,1.1 0.2,-0.1 0.2,-0.3 0.1,-0.5 0.2,0.1 0.3,0.2 0.3,0.4 0.5,0.6 1.1,1 1.7,1.3 v -0.2 c 1.1,0 1,0.4 1.7,0.3 l 0.2,0.5 c 0.3,0 0.6,-0.1 0.8,-0.4 -0.5,-1.2 0.3,-1.3 1.6,-0.8 l -0.2,0.3 c 0.5,0.6 1.5,2.5 1,3.5 l 0.3,0.2 c -0.2,0.2 -1.5,1.5 -1.3,2 l -0.3,0.1 0.1,0.3 c -0.9,0.7 -1.6,1.3 -1.9,2.3 0.2,0.4 0.2,0.7 0,1 l 0.6,0.3 0.4,-0.4 c -0.6,0.9 -1.2,2.3 -1.2,3.4 0.2,0.2 0.5,0.4 0.7,0.6 C 73.1,78.6 79,73 82.9,66.1 Z M 55.5,15.7 H 56 c -0.1,0 -0.2,0.1 -0.2,0.1 -0.2,0 -0.2,-0.1 -0.3,-0.1 z m -3.6,2.4 c 0,0 0,-0.1 0,0 0,-0.1 0,0 0,0 z M 55,17.3 c -0.1,0.1 -0.2,0.2 -0.2,0.3 -0.2,-0.1 -0.2,-0.2 -0.3,-0.3 z m -1.3,-1.6 -0.1,-0.1 c 0.1,0 0.1,0.1 0.2,0.1 v 0.2 c -0.2,0 -0.3,0.1 -0.4,0.3 0.3,0 0.5,0.1 0.7,0.3 -0.2,-0.2 -0.5,-0.2 -0.7,-0.1 l 0.1,0.3 c -0.2,0 -0.4,-0.1 -0.6,-0.1 v -0.2 c -0.1,-0.1 -0.2,-0.2 -0.3,-0.2 0.4,-0.1 0.7,-0.3 1.1,-0.5 z m -1.7,0 c 0,0 0.1,0 0,0 0.1,0 0,0 0,0 z m 0.2,0.2 h 0.1 v -0.1 c -0.1,-0.1 -0.2,-0.1 -0.2,-0.1 h 0.3 c 0,0.1 0.1,0.2 0.1,0.3 -0.1,0 -0.2,-0.1 -0.3,-0.1 z M 52.1,18 c 0,0 0.1,0 0.1,-0.1 h 0.1 L 53,17.2 c 0.3,0.1 0.5,0.1 0.8,0.1 H 54 c -0.8,0.8 -0.8,1.1 0,1 l -0.3,0.3 c 0.6,0.4 1,0.6 1.5,0.8 0.1,0.4 0,0.9 -0.4,1.2 -0.3,-0.5 -0.5,-0.7 -0.9,-1.2 L 53.5,19.9 53.4,19.3 53,19.2 C 53.6,18.7 53.3,18.3 52.1,18 Z M 47,20.3 46.8,20 c 0.2,0.1 0.3,0.1 0.5,0.1 z"
   style="fill:#f5e6c8"
   id="path36" />

<path
   fill="#f5e6c8"
   d="M 21.9,23.2 Z"
   style="fill:#f5e6c8"
   id="path38" />

<metadata
   id="metadata40"><d:name
   style="animation-play-state:paused">earth</d:name>



<d:tags
   style="animation-play-state:paused">globe,map,world,america,planet,pacific ocean,earth,web application</d:tags>



<d:license
   style="animation-play-state:paused">by</d:license>



<d:slug
   style="animation-play-state:paused">qvz8de</d:slug>
</metadata>
</g>
  </g>
</svg>
